<svg xmlns="http://www.w3.org/2000/svg" xmlns:xlink="http://www.w3.org/1999/xlink" width="52" height="95" viewBox="0 0 52 95"><defs><style>.a{fill:none;}.b{clip-path:url(#a);}.c{fill:#bdc941;}.d{fill:#eb9300;}.e{fill:#ed7402;}.f{fill:#e84f0f;}.g{fill:#e31414;}.h{clip-path:url(#b);}.i{fill:#ce1e57;}.j{clip-path:url(#c);}.k{fill:#a9388c;}.l{clip-path:url(#d);}.m{fill:#6d3181;}.n{fill:#008b9a;}.o{fill:#434d9a;}.p{clip-path:url(#e);}.q{fill:#d7aa00;}.r{fill:#9b9921;}.s{fill:#3ba648;}.t{fill:#5cb3ad;}.u{fill:#508153;}.v{clip-path:url(#f);}.w{fill:#424242;}</style><clipPath id="a"><path class="a" d="M0,0H3.252V4.249H0Z" transform="translate(0 0.06)"/></clipPath><clipPath id="b"><path class="a" d="M0,0H8.373V5.1H0Z" transform="translate(0.112 0.145)"/></clipPath><clipPath id="c"><path class="a" d="M0,0H7.366V6.461H0Z" transform="translate(0.114 0.016)"/></clipPath><clipPath id="d"><path class="a" d="M0,0H2.493V3.805H0Z" transform="translate(0 0.02)"/></clipPath><clipPath id="e"><path class="a" d="M0,0H2.941V5.029H0Z" transform="translate(0.04 0.051)"/></clipPath><clipPath id="f"><path class="a" d="M0,0H3.476V1.929H0Z" transform="translate(0.137 0.076)"/></clipPath></defs><g transform="translate(0)"><g transform="translate(6 37)"><g transform="translate(0 0.257)"><path class="a" d="M0,0H3.252V4.249H0Z" transform="translate(0 0.06)"/><g class="b"><path class="c" d="M2.444,4.134a3.011,3.011,0,0,1,.807.115L1.509,0A2.164,2.164,0,0,0,0,1.985,2.31,2.31,0,0,0,2.444,4.134" transform="translate(0 0.06)"/></g></g><path class="d" d="M1.971,4.485,1.608.028C1.386.01,1.161,0,.935,0A2.727,2.727,0,0,0,0,.163L1.743,4.412c.077.022.154.046.229.073" transform="translate(1.509 0.154)"/><path class="e" d="M1.694,5.188,2.185.462A8.645,8.645,0,0,0,0,0L.363,4.458a5.063,5.063,0,0,1,1.331.73" transform="translate(3.117 0.182)"/><path class="f" d="M6.288,4.072,3.757,0A19.105,19.105,0,0,0,0,5.152L4.583,6.681a17.141,17.141,0,0,1,1.7-2.609" transform="translate(9.33 3.022)"/><path class="f" d="M1.9,6.658l1.464.488A23.03,23.03,0,0,1,5.532,3.7,11.757,11.757,0,0,0,.491,0L0,4.726A10.051,10.051,0,0,1,1.9,6.658" transform="translate(4.812 0.644)"/><path class="g" d="M2.636,0A23.817,23.817,0,0,1,0,4.408,12.571,12.571,0,0,0,3.928,7.633l1.9-4.046A11.368,11.368,0,0,1,2.636,0" transform="translate(11.833 11.248)"/><path class="g" d="M6.63,1.529,2.047,0c-.152.291-.3.588-.446.894A20.465,20.465,0,0,1,0,3.758L2.753,7.84A21.572,21.572,0,0,0,6.122,2.531q.249-.52.508-1" transform="translate(7.283 8.174)"/><g transform="translate(16.81 14.6)"><path class="a" d="M0,0H8.373V5.1H0Z" transform="translate(0.112 0.145)"/><g class="h"><path class="g" d="M5.012,0A3.931,3.931,0,0,1,2.807.8,3.653,3.653,0,0,1,.947.221L0,4.626A8.61,8.61,0,0,0,2.807,5.1,9.175,9.175,0,0,0,8.373,3.132Z" transform="translate(0.112 0.145)"/></g></g><path class="g" d="M.991,1.446A.091.091,0,0,1,1,1.419c.149-.319.3-.627.461-.931L0,0A16.033,16.033,0,0,1,.991,1.446" transform="translate(6.716 7.302)"/><path class="i" d="M0,1.45,2.087,5.775A13.835,13.835,0,0,0,3.872,4.081L1.119,0A13.823,13.823,0,0,1,0,1.45" transform="translate(6.164 11.932)"/><g transform="translate(0.771 13.366)"><path class="a" d="M0,0H7.366V6.461H0Z" transform="translate(0.114 0.016)"/><g class="j"><path class="k" d="M1.607,2.162,0,5.967a2.653,2.653,0,0,0,1.56.494A9.3,9.3,0,0,0,7.366,4.325L5.279,0A5.444,5.444,0,0,1,1.607,2.162" transform="translate(0.114 0.016)"/></g></g><g transform="translate(0 15.525)"><path class="a" d="M0,0H2.493V3.805H0Z" transform="translate(0 0.02)"/><g class="l"><path class="m" d="M2.446,0A2.313,2.313,0,0,0,0,2.151,2.054,2.054,0,0,0,.886,3.805L2.493,0,2.446,0" transform="translate(0 0.02)"/></g></g><path class="f" d="M3.088,3.476l-.005,0L1.314.038v0L1.3,0C.874.732.4,1.519,0,2.092L3.089,3.477Z" transform="translate(29.336 13.247)"/><path class="f" d="M6.14,2.356,4.941,0,1.953.083A17.769,17.769,0,0,1,0,3.185L4.386,5.152a22,22,0,0,0,1.754-2.8" transform="translate(23.858 9.697)"/><path class="d" d="M6.23,4.322,6.348,0A9.737,9.737,0,0,0,0,2.861L2.53,6.933a6.456,6.456,0,0,1,3.7-2.61" transform="translate(13.088 0.161)"/><path class="g" d="M0,1.392,1.769,4.828l.005,0,.982.441,1-.348L.742,0C.568.318.34.729.088,1.168L0,1.39Z" transform="translate(30.65 11.893)"/><path class="n" d="M.833,0,0,.285.6,1.791a8.85,8.85,0,0,0,2.8.827L2.418.751Z" transform="translate(32.574 17.164)"/><path class="o" d="M0,.405a10.548,10.548,0,0,0,1.789,1.1L1.186,0Z" transform="translate(31.388 17.449)"/><path class="d" d="M6.31,1.967,1.923,0A9.417,9.417,0,0,1,0,1.863L3.361,5A14.768,14.768,0,0,0,6.31,1.967" transform="translate(21.935 12.882)"/><path class="d" d="M2.282,2.516l1.186-.405L4.3,1.825l-.981-.44L.229,0C.149.114.072.221,0,.316a13.963,13.963,0,0,0,2.282,2.2" transform="translate(29.107 15.338)"/><path class="d" d="M1.121,0Q.662.829.239,1.742C.16,1.907.08,2.068,0,2.228l2.989-.083Z" transform="translate(25.81 7.552)"/><path class="d" d="M0,0A12.116,12.116,0,0,1,2.827,3.332Q3.359,2.2,3.949,1.191L3.5.674Z" transform="translate(22.161 5.419)"/><g transform="translate(19.278 0.103)"><path class="a" d="M0,0H2.941V5.029H0Z" transform="translate(0.04 0.051)"/><g class="p"><path class="q" d="M.417,4.3a3.834,3.834,0,0,1,2.1.732l.426-2.994,0,0V2.026L.538,0,.417,0c-.1,0-.2,0-.3.007L0,4.33A2.839,2.839,0,0,1,.417,4.3" transform="translate(0.04 0.051)"/></g></g><path class="r" d="M.426,0,0,2.994c.108.073.219.151.328.235l3.5.674Z" transform="translate(21.832 2.19)"/><path class="c" d="M2.556.429A8.559,8.559,0,0,0,0,0L2.4,2.025Z" transform="translate(19.855 0.156)"/><path class="s" d="M0,1.6V1.6l0,0,3.4,3.9.45.517q.469-.805.975-1.528L.819.247C.6.155.379.073.156,0Z" transform="translate(22.255 0.585)"/><path class="s" d="M4.251,3.741c.03-.056.06-.114.091-.17L.973,0Q.469.755,0,1.6L1.868,3.746Z" transform="translate(26.931 5.951)"/><path class="n" d="M4.1,4.087,5.042.9,2.367,0l.489,3.724L.7.746c-.239.313-.472.643-.7.985L3.369,5.3q.355-.643.727-1.216" transform="translate(27.904 4.219)"/><path class="n" d="M4.545,3.512A12.077,12.077,0,0,0,0,0L4.01,4.25c.175-.253.353-.5.535-.738" transform="translate(23.074 0.831)"/><path class="t" d="M0,3.177A11.966,11.966,0,0,1,2.308.487L.938,0S.337,2.039,0,3.177" transform="translate(32.007 5.119)"/><path class="c" d="M0,2.572l1.37.487A4.346,4.346,0,0,1,4.051,1.9a2.674,2.674,0,0,0,1.416-.4L.731,0Z" transform="translate(32.945 2.547)"/><path class="s" d="M.131,2.328l2.674.9L3.536.656,1.593,0A12.57,12.57,0,0,0,0,1.328Z" transform="translate(30.14 1.891)"/><path class="u" d="M5.554,1.826A2.371,2.371,0,0,0,3.135,0,8.6,8.6,0,0,0,.4.448L0,1.766Z" transform="translate(33.861 0.154)"/><path class="t" d="M0,.626,4.736,2.134A2.082,2.082,0,0,0,5.765.382,1.981,1.981,0,0,0,5.738.06L.184,0Z" transform="translate(33.677 1.921)"/><path class="r" d="M0,.005,1.2,2.361q.29-.544.565-1.122Q2.063.592,2.383,0Z" transform="translate(28.799 9.692)"/><path class="o" d="M1.667,1,1.536,0A16.041,16.041,0,0,0,0,1.746L2.156,4.725Z" transform="translate(28.604 3.219)"/><path class="r" d="M5.476,4.742l-.362-.49C3.543,3.98,1.832,2.431.345,0c0,0-.134.254-.345.641L3.016,5.565Z" transform="translate(31.393 11.251)"/><path class="o" d="M1.4.2A2.726,2.726,0,0,0,.49.043,2.919,2.919,0,0,1,0,0L.362.489Z" transform="translate(36.507 15.503)"/><path class="s" d="M0,.823l.591,1.1L4.059,3.419a2.238,2.238,0,0,0,.7-.733L2.46,0Z" transform="translate(34.409 15.993)"/><path class="n" d="M2.3,2.979A1.934,1.934,0,0,0,2.573,2,2.172,2.172,0,0,0,1.035,0L0,.293Z" transform="translate(36.869 15.7)"/><g transform="translate(34.854 17.839)"><path class="a" d="M0,0H3.476V1.929H0Z" transform="translate(0.137 0.076)"/><g class="v"><path class="c" d="M0,0,.986,1.867a8.426,8.426,0,0,0,1.02.062A2.658,2.658,0,0,0,3.476,1.5L.008,0Z" transform="translate(0.137 0.076)"/></g></g><path class="r" d="M1,0,0,.348,1.585,1.1Z" transform="translate(33.406 16.816)"/><path class="f" d="M1.9,0,0,4.046a9.354,9.354,0,0,0,1.161.49L2.109.132C2.038.09,1.968.046,1.9,0" transform="translate(15.761 14.834)"/><path class="n" d="M2.126.049.026,0,0,.018,1.941.675Z" transform="translate(31.735 1.872)"/><path class="o" d="M2.5,0A9.869,9.869,0,0,0,0,1.269l2.1.049Z" transform="translate(31.761 0.603)"/></g><path class="w" d="M48.857,95H3.144A3.158,3.158,0,0,1,0,91.836V3.164A3.158,3.158,0,0,1,3.144,0H48.857A3.158,3.158,0,0,1,52,3.164V91.836A3.158,3.158,0,0,1,48.857,95ZM21.47,88.131a1.716,1.716,0,0,0,0,3.432h9.058a1.716,1.716,0,0,0,0-3.432ZM8.113,10.953a3.158,3.158,0,0,0-3.144,3.164V81.407a3.158,3.158,0,0,0,3.144,3.164H43.887a3.158,3.158,0,0,0,3.144-3.164V14.117a3.158,3.158,0,0,0-3.144-3.164Zm9.763-7.13a1.716,1.716,0,0,0,0,3.433H34.124a1.716,1.716,0,0,0,0-3.433Z"/></g></svg>